<mxfile host="app.diagrams.net" modified="2023-10-18T04:22:53.643Z" agent="Mozilla/5.0 (Windows NT 10.0; Win64; x64) AppleWebKit/537.36 (KHTML, like Gecko) Chrome/118.0.0.0 Safari/537.36" etag="sxfcoV-BbP2UdF4yDUa7" version="22.0.4" type="google">
  <diagram name="Page-1" id="sVbX8MlKyK_5I4G1na8V">
    <mxGraphModel grid="1" page="1" gridSize="10" guides="1" tooltips="1" connect="1" arrows="1" fold="1" pageScale="1" pageWidth="827" pageHeight="1169" background="#ffffff" math="0" shadow="0">
      <root>
        <mxCell id="0" />
        <mxCell id="1" parent="0" />
        <mxCell id="QUEmdY7utOQCfvG_pKkY-4" style="edgeStyle=orthogonalEdgeStyle;rounded=0;orthogonalLoop=1;jettySize=auto;html=1;exitX=0.5;exitY=1;exitDx=0;exitDy=0;entryX=0.5;entryY=0;entryDx=0;entryDy=0;" edge="1" parent="1" source="QUEmdY7utOQCfvG_pKkY-5" target="QUEmdY7utOQCfvG_pKkY-7">
          <mxGeometry relative="1" as="geometry" />
        </mxCell>
        <mxCell id="QUEmdY7utOQCfvG_pKkY-5" value="&lt;span style=&quot;font-size: 14px;&quot;&gt;&lt;b&gt;START&lt;br&gt;&lt;/b&gt;&lt;/span&gt;" style="ellipse;whiteSpace=wrap;html=1;" vertex="1" parent="1">
          <mxGeometry x="355" y="40" width="150" height="70" as="geometry" />
        </mxCell>
        <mxCell id="QUEmdY7utOQCfvG_pKkY-6" style="edgeStyle=orthogonalEdgeStyle;rounded=0;orthogonalLoop=1;jettySize=auto;html=1;exitX=0.5;exitY=1;exitDx=0;exitDy=0;entryX=0.5;entryY=0;entryDx=0;entryDy=0;" edge="1" parent="1" source="QUEmdY7utOQCfvG_pKkY-7" target="QUEmdY7utOQCfvG_pKkY-9">
          <mxGeometry relative="1" as="geometry">
            <mxPoint x="430" y="330" as="targetPoint" />
            <Array as="points">
              <mxPoint x="430" y="290" />
              <mxPoint x="430" y="360" />
            </Array>
          </mxGeometry>
        </mxCell>
        <mxCell id="QUEmdY7utOQCfvG_pKkY-7" value="&lt;font style=&quot;font-size: 14px;&quot;&gt;&lt;b&gt;Retrieve &lt;br&gt;Company_Symbol, Report_Publish_Year, &lt;br&gt;Report_URL,&lt;br&gt;&amp;nbsp;Company_Name from user&lt;/b&gt;&lt;/font&gt;" style="rounded=0;whiteSpace=wrap;html=1;" vertex="1" parent="1">
          <mxGeometry x="292.5" y="150" width="275" height="100" as="geometry" />
        </mxCell>
        <mxCell id="QUEmdY7utOQCfvG_pKkY-8" style="edgeStyle=orthogonalEdgeStyle;rounded=0;orthogonalLoop=1;jettySize=auto;html=1;" edge="1" parent="1" source="QUEmdY7utOQCfvG_pKkY-9">
          <mxGeometry relative="1" as="geometry">
            <mxPoint x="430" y="410" as="targetPoint" />
          </mxGeometry>
        </mxCell>
        <mxCell id="QUEmdY7utOQCfvG_pKkY-9" value="&lt;font style=&quot;font-size: 14px;&quot;&gt;&lt;b&gt;Using API, transfer the &lt;br&gt;data to backend&lt;/b&gt;&lt;/font&gt;" style="rounded=0;whiteSpace=wrap;html=1;" vertex="1" parent="1">
          <mxGeometry x="330" y="290" width="200" height="70" as="geometry" />
        </mxCell>
        <mxCell id="QUEmdY7utOQCfvG_pKkY-11" style="edgeStyle=orthogonalEdgeStyle;rounded=0;orthogonalLoop=1;jettySize=auto;html=1;exitX=1;exitY=0.5;exitDx=0;exitDy=0;entryX=0;entryY=0.5;entryDx=0;entryDy=0;" edge="1" parent="1" source="QUEmdY7utOQCfvG_pKkY-10" target="QUEmdY7utOQCfvG_pKkY-16">
          <mxGeometry relative="1" as="geometry">
            <mxPoint x="640" y="640" as="targetPoint" />
          </mxGeometry>
        </mxCell>
        <mxCell id="QUEmdY7utOQCfvG_pKkY-13" style="edgeStyle=orthogonalEdgeStyle;rounded=0;orthogonalLoop=1;jettySize=auto;html=1;exitX=0.5;exitY=1;exitDx=0;exitDy=0;" edge="1" parent="1">
          <mxGeometry relative="1" as="geometry">
            <mxPoint x="429.59" y="660" as="targetPoint" />
            <mxPoint x="429.5900000000001" y="450" as="sourcePoint" />
          </mxGeometry>
        </mxCell>
        <mxCell id="QUEmdY7utOQCfvG_pKkY-10" value="&lt;font style=&quot;font-size: 14px;&quot;&gt;&lt;b&gt;&lt;br&gt;Company_symbol &lt;br&gt;with same Publish_Year &lt;br&gt;already&lt;br&gt;processed?&lt;/b&gt;&lt;/font&gt;" style="rhombus;whiteSpace=wrap;html=1;" vertex="1" parent="1">
          <mxGeometry x="317.5" y="410" width="225" height="200" as="geometry" />
        </mxCell>
        <mxCell id="QUEmdY7utOQCfvG_pKkY-12" value="&lt;font style=&quot;font-size: 14px;&quot;&gt;&lt;b&gt;Yes&lt;/b&gt;&lt;/font&gt;" style="text;html=1;align=center;verticalAlign=middle;resizable=0;points=[];autosize=1;strokeColor=none;fillColor=none;" vertex="1" parent="1">
          <mxGeometry x="610" y="480" width="50" height="30" as="geometry" />
        </mxCell>
        <mxCell id="QUEmdY7utOQCfvG_pKkY-14" value="&lt;font style=&quot;font-size: 14px;&quot;&gt;&lt;b&gt;No&lt;/b&gt;&lt;/font&gt;" style="text;html=1;align=center;verticalAlign=middle;resizable=0;points=[];autosize=1;strokeColor=none;fillColor=none;" vertex="1" parent="1">
          <mxGeometry x="430" y="610" width="40" height="30" as="geometry" />
        </mxCell>
        <mxCell id="QUEmdY7utOQCfvG_pKkY-16" value="&lt;b&gt;&lt;font style=&quot;font-size: 14px;&quot;&gt;Inform the user&lt;br&gt;&lt;/font&gt;&lt;/b&gt;" style="rounded=0;whiteSpace=wrap;html=1;" vertex="1" parent="1">
          <mxGeometry x="730" y="480" width="220" height="60" as="geometry" />
        </mxCell>
        <mxCell id="QUEmdY7utOQCfvG_pKkY-17" value="&lt;font style=&quot;font-size: 14px;&quot;&gt;&lt;b&gt;Server intercepts the&amp;nbsp;&lt;br&gt;input from user&lt;br&gt;&lt;/b&gt;&lt;/font&gt;" style="rounded=0;whiteSpace=wrap;html=1;" vertex="1" parent="1">
          <mxGeometry x="345" y="660" width="170" height="60" as="geometry" />
        </mxCell>
        <mxCell id="QUEmdY7utOQCfvG_pKkY-19" value="&lt;font style=&quot;font-size: 14px;&quot;&gt;&lt;b&gt;Get PDF from the url, &lt;br&gt;and extract the text&lt;/b&gt;&lt;/font&gt;" style="rounded=0;whiteSpace=wrap;html=1;" vertex="1" parent="1">
          <mxGeometry x="330" y="770" width="200" height="60" as="geometry" />
        </mxCell>
        <mxCell id="QUEmdY7utOQCfvG_pKkY-22" style="edgeStyle=orthogonalEdgeStyle;rounded=0;orthogonalLoop=1;jettySize=auto;html=1;exitX=0.5;exitY=1;exitDx=0;exitDy=0;" edge="1" parent="1" source="QUEmdY7utOQCfvG_pKkY-21">
          <mxGeometry relative="1" as="geometry">
            <mxPoint x="430" y="990" as="targetPoint" />
          </mxGeometry>
        </mxCell>
        <mxCell id="QUEmdY7utOQCfvG_pKkY-21" value="&lt;span style=&quot;font-size: 14px;&quot;&gt;&lt;b&gt;Text Cleaning&lt;/b&gt;&lt;/span&gt;" style="rounded=0;whiteSpace=wrap;html=1;" vertex="1" parent="1">
          <mxGeometry x="345" y="880" width="170" height="60" as="geometry" />
        </mxCell>
        <mxCell id="QUEmdY7utOQCfvG_pKkY-23" value="&lt;font style=&quot;font-size: 14px;&quot;&gt;&lt;b&gt;apply &lt;br&gt;lemmatization, tokenization &lt;br&gt;and segmentation&lt;/b&gt;&lt;/font&gt;" style="rounded=0;whiteSpace=wrap;html=1;" vertex="1" parent="1">
          <mxGeometry x="315" y="990" width="230" height="70" as="geometry" />
        </mxCell>
        <mxCell id="QUEmdY7utOQCfvG_pKkY-25" value="&lt;font style=&quot;font-size: 14px;&quot;&gt;&lt;b&gt;ESG-BERT model generates &lt;br&gt;the scores based on &lt;br&gt;analysis of text&lt;/b&gt;&lt;/font&gt;" style="rounded=0;whiteSpace=wrap;html=1;" vertex="1" parent="1">
          <mxGeometry x="315" y="1104" width="230" height="90" as="geometry" />
        </mxCell>
        <mxCell id="QUEmdY7utOQCfvG_pKkY-32" value="&lt;font style=&quot;font-size: 14px;&quot;&gt;&lt;b&gt;Generate the ESG scores,&lt;br&gt;based on distributions&lt;br&gt;&lt;/b&gt;&lt;/font&gt;" style="whiteSpace=wrap;html=1;" vertex="1" parent="1">
          <mxGeometry x="316.25" y="1370" width="227.5" height="60" as="geometry" />
        </mxCell>
        <mxCell id="QUEmdY7utOQCfvG_pKkY-34" value="&lt;span style=&quot;font-size: 14px;&quot;&gt;&lt;b&gt;Store in JSON DB&lt;/b&gt;&lt;/span&gt;" style="whiteSpace=wrap;html=1;" vertex="1" parent="1">
          <mxGeometry x="310" y="1490" width="240" height="60" as="geometry" />
        </mxCell>
        <mxCell id="QUEmdY7utOQCfvG_pKkY-36" value="&lt;font style=&quot;font-size: 14px;&quot;&gt;&lt;b&gt;Present Data &lt;br&gt;to the user&lt;/b&gt;&lt;/font&gt;" style="whiteSpace=wrap;html=1;" vertex="1" parent="1">
          <mxGeometry x="322.5" y="1620" width="220" height="60" as="geometry" />
        </mxCell>
        <mxCell id="QUEmdY7utOQCfvG_pKkY-42" value="&lt;b&gt;&lt;font style=&quot;font-size: 14px;&quot;&gt;END&lt;/font&gt;&lt;/b&gt;" style="ellipse;whiteSpace=wrap;html=1;" vertex="1" parent="1">
          <mxGeometry x="370" y="1730" width="120" height="60" as="geometry" />
        </mxCell>
        <mxCell id="CqqZz2mM15aNYa-wRS4h-2" value="" style="endArrow=classic;html=1;rounded=0;exitX=0.5;exitY=1;exitDx=0;exitDy=0;entryX=0.5;entryY=0;entryDx=0;entryDy=0;" edge="1" parent="1" source="QUEmdY7utOQCfvG_pKkY-17" target="QUEmdY7utOQCfvG_pKkY-19">
          <mxGeometry width="50" height="50" relative="1" as="geometry">
            <mxPoint x="410" y="780" as="sourcePoint" />
            <mxPoint x="460" y="730" as="targetPoint" />
          </mxGeometry>
        </mxCell>
        <mxCell id="CqqZz2mM15aNYa-wRS4h-3" value="" style="endArrow=classic;html=1;rounded=0;exitX=0.5;exitY=1;exitDx=0;exitDy=0;entryX=0.5;entryY=0;entryDx=0;entryDy=0;" edge="1" parent="1" source="QUEmdY7utOQCfvG_pKkY-19" target="QUEmdY7utOQCfvG_pKkY-21">
          <mxGeometry width="50" height="50" relative="1" as="geometry">
            <mxPoint x="520" y="920" as="sourcePoint" />
            <mxPoint x="570" y="870" as="targetPoint" />
          </mxGeometry>
        </mxCell>
        <mxCell id="QUEmdY7utOQCfvG_pKkY-27" value="&lt;font style=&quot;font-size: 14px;&quot;&gt;&lt;b&gt;distribution of classes &lt;br&gt;with categories&lt;/b&gt;&lt;/font&gt;" style="rounded=0;whiteSpace=wrap;html=1;" vertex="1" parent="1">
          <mxGeometry x="325" y="1250" width="210" height="60" as="geometry" />
        </mxCell>
        <mxCell id="CqqZz2mM15aNYa-wRS4h-6" value="" style="endArrow=classic;html=1;rounded=0;exitX=0.5;exitY=1;exitDx=0;exitDy=0;entryX=0.5;entryY=0;entryDx=0;entryDy=0;" edge="1" parent="1" source="QUEmdY7utOQCfvG_pKkY-23" target="QUEmdY7utOQCfvG_pKkY-25">
          <mxGeometry width="50" height="50" relative="1" as="geometry">
            <mxPoint x="260" y="1130" as="sourcePoint" />
            <mxPoint x="435" y="1100" as="targetPoint" />
          </mxGeometry>
        </mxCell>
        <mxCell id="CqqZz2mM15aNYa-wRS4h-7" value="" style="endArrow=classic;html=1;rounded=0;exitX=0.5;exitY=1;exitDx=0;exitDy=0;entryX=0.5;entryY=0;entryDx=0;entryDy=0;" edge="1" parent="1" source="QUEmdY7utOQCfvG_pKkY-25" target="QUEmdY7utOQCfvG_pKkY-27">
          <mxGeometry width="50" height="50" relative="1" as="geometry">
            <mxPoint x="240" y="1290" as="sourcePoint" />
            <mxPoint x="435" y="1250" as="targetPoint" />
          </mxGeometry>
        </mxCell>
        <mxCell id="CqqZz2mM15aNYa-wRS4h-8" value="" style="endArrow=classic;html=1;rounded=0;exitX=0.5;exitY=1;exitDx=0;exitDy=0;entryX=0.5;entryY=0;entryDx=0;entryDy=0;" edge="1" parent="1" source="QUEmdY7utOQCfvG_pKkY-27" target="QUEmdY7utOQCfvG_pKkY-32">
          <mxGeometry width="50" height="50" relative="1" as="geometry">
            <mxPoint x="780" y="1410" as="sourcePoint" />
            <mxPoint x="437.5" y="1360" as="targetPoint" />
          </mxGeometry>
        </mxCell>
        <mxCell id="CqqZz2mM15aNYa-wRS4h-11" value="" style="endArrow=classic;html=1;rounded=0;exitX=0.5;exitY=1;exitDx=0;exitDy=0;entryX=0.496;entryY=-0.017;entryDx=0;entryDy=0;entryPerimeter=0;" edge="1" parent="1" target="QUEmdY7utOQCfvG_pKkY-34" source="QUEmdY7utOQCfvG_pKkY-32">
          <mxGeometry width="50" height="50" relative="1" as="geometry">
            <mxPoint x="436.615" y="1650" as="sourcePoint" />
            <mxPoint x="435.88" y="1689.88" as="targetPoint" />
          </mxGeometry>
        </mxCell>
        <mxCell id="CqqZz2mM15aNYa-wRS4h-13" value="" style="endArrow=classic;html=1;rounded=0;exitX=0.5;exitY=1;exitDx=0;exitDy=0;entryX=0.489;entryY=-0.01;entryDx=0;entryDy=0;entryPerimeter=0;" edge="1" parent="1" source="QUEmdY7utOQCfvG_pKkY-34" target="QUEmdY7utOQCfvG_pKkY-36">
          <mxGeometry width="50" height="50" relative="1" as="geometry">
            <mxPoint x="650" y="1810" as="sourcePoint" />
            <mxPoint x="440" y="1800" as="targetPoint" />
          </mxGeometry>
        </mxCell>
        <mxCell id="CqqZz2mM15aNYa-wRS4h-14" value="" style="endArrow=classic;html=1;rounded=0;exitX=0.489;exitY=0.993;exitDx=0;exitDy=0;entryX=0.5;entryY=0;entryDx=0;entryDy=0;exitPerimeter=0;" edge="1" parent="1" source="QUEmdY7utOQCfvG_pKkY-36" target="QUEmdY7utOQCfvG_pKkY-42">
          <mxGeometry width="50" height="50" relative="1" as="geometry">
            <mxPoint x="590" y="1980" as="sourcePoint" />
            <mxPoint x="640" y="1930" as="targetPoint" />
          </mxGeometry>
        </mxCell>
        <mxCell id="CqqZz2mM15aNYa-wRS4h-15" value="" style="endArrow=classic;html=1;rounded=0;exitX=0.5;exitY=1;exitDx=0;exitDy=0;entryX=1;entryY=0.5;entryDx=0;entryDy=0;" edge="1" parent="1" source="QUEmdY7utOQCfvG_pKkY-16" target="QUEmdY7utOQCfvG_pKkY-36">
          <mxGeometry width="50" height="50" relative="1" as="geometry">
            <mxPoint x="1220" y="1220" as="sourcePoint" />
            <mxPoint x="840" y="1960" as="targetPoint" />
            <Array as="points">
              <mxPoint x="840" y="1650" />
            </Array>
          </mxGeometry>
        </mxCell>
      </root>
    </mxGraphModel>
  </diagram>
</mxfile>
